# xmcd
#
# Track frame offsets: 
#        150
#        17318
#        35135
#        51860
#        68945
#        87226
#        107813
#        128991
#        144332
#        162212
#
# Disc length: 2426 seconds
#
# Revision: 0
# Processed by: cddbd v1.5.2PL0 Copyright (c) Steve Scherf et al.
# Submitted via: ExactAudioCopy v0.99pb5
#
DISCID=8309780a
DTITLE=SIMON D - SIMON DOMINOC. PRESENTS "SNL LEAGUE BEGINS"
DYEAR=2011
DGENRE=Hip-Hop
TTITLE0=퍽이나 (Intro) Feat. DJ Friz
TTITLE1=에헤이 (Eh Hey) Feat. 조휴일 of 검정치마
TTITLE2=컴플렉스 (Complex 3) Feat. B-Free, 지구인
TTITLE3=짠해 (Cheerz)
TTITLE4=히어로 (Hero)
TTITLE5=Stay Cool Feat. Zion. T
TTITLE6=끈 (No More) Feat. jungigo
TTITLE7=해부 (Body Rock)
TTITLE8=힘 (We Got) Feat. Dynamic Duo, Boston Horns
TTITLE9=혼자만 남은 오후 (Gettin' Better)
EXTD=
EXTT0=
EXTT1=
EXTT2=
EXTT3=
EXTT4=
EXTT5=
EXTT6=
EXTT7=
EXTT8=
EXTT9=
PLAYORDER=
